<svg id="Layer_1" data-name="Layer 1" xmlns="http://www.w3.org/2000/svg" xmlns:xlink="http://www.w3.org/1999/xlink" viewBox="0 0 435.36 435.36"><defs><style>.cls-1{fill:url(#linear-gradient);}.cls-2{fill:#fff;}</style><linearGradient id="linear-gradient" y1="217.68" x2="435.36" y2="217.68" gradientUnits="userSpaceOnUse"><stop offset="0" stop-color="#4b58a6"/><stop offset="0.25" stop-color="#813395"/><stop offset="0.5" stop-color="#dd287b"/><stop offset="0.75" stop-color="#f28528"/><stop offset="1" stop-color="#f8da77"/></linearGradient></defs><rect class="cls-1" width="435.36" height="435.36" rx="42.26"/><path class="cls-2" d="M318.76,219.12c-5.47-18.3-15.63-32.92-33.13-41.55-14-6.89-28.91-8.47-44.2-6.75-26.34,3-44.87,16.51-53.85,41.66-8.45,23.65-8.4,47.76-1.22,71.73,4.73,15.78,13.82,28.52,28.38,36.84,11.45,6.53,24,8.77,42.48,8.77A59.92,59.92,0,0,0,300.36,311c17.88-18.67,17.61-53-11.71-66.73a3.61,3.61,0,0,1-2.38-3.53,42.41,42.41,0,0,0-4-15.47C276.36,213,266,207.79,252.92,207.45c-11.91-.31-22,3.65-29.5,13.38-.94,1.22-.86,1.84.41,2.65,2.72,1.77,5.44,3.56,8,5.52,1.46,1.11,2.2.87,3.37-.48,6-7,13.91-8,22.38-6.41,8.06,1.51,12.17,7,14.11,14.59.55,2.14-.08,2.4-1.92,2.11a82.69,82.69,0,0,0-19.19-.48,39.24,39.24,0,0,0-18.14,5.77A25.07,25.07,0,0,0,225,279.79c5.59,8,13.82,11.46,23.26,12.07,13,.84,23.95-3,31.32-14.42a41.75,41.75,0,0,0,5.91-16.5c.27-1.72.6-2.3,2.34-1.06a25.37,25.37,0,0,1,10.29,26.39c-2.69,12.21-10.81,19.85-21.64,24.84-10.5,4.85-21.75,5.38-33.07,4.21-21.8-2.26-36.8-13.43-43.56-34.54a100.57,100.57,0,0,1-.58-59.71c5-17.18,15.61-29.32,33.28-34.23a69.62,69.62,0,0,1,39.53.47,45.87,45.87,0,0,1,27.63,22.16,63.56,63.56,0,0,1,5.51,13.07c.31,1.05.51,1.76,1.9,1.36,3.45-1,6.94-1.91,10.43-2.79C318.7,220.81,319.15,220.44,318.76,219.12Zm-46.35,36c-.69,4.88-1.55,9.69-4.07,14A15.94,15.94,0,0,1,258,277.09c-5.61,1.37-11.17,1.29-16.47-1.21-4.05-1.91-6.82-4.92-7.06-9.66s2.08-8.22,6-10.63c4.34-2.64,9.23-3.19,14.16-3.45,1.22-.07,2.45,0,3.68,0a72.52,72.52,0,0,1,12.31,1C271.83,253.32,272.62,253.61,272.41,255.12Z" transform="translate(-32.32 -32.32)"/><path class="cls-2" d="M317.29,90.83H182.71a91.89,91.89,0,0,0-91.88,91.88V317.29a91.89,91.89,0,0,0,91.88,91.88H317.29a91.89,91.89,0,0,0,91.88-91.88V182.71A91.89,91.89,0,0,0,317.29,90.83Zm62.56,228.82a61,61,0,0,1-61,61H181.14a61,61,0,0,1-61-61V181.93a61,61,0,0,1,61-61H318.86a61,61,0,0,1,61,61Z" transform="translate(-32.32 -32.32)"/><circle class="cls-2" cx="303.03" cy="132.73" r="19.24"/></svg>